<svg xmlns="http://www.w3.org/2000/svg" xmlns:xlink="http://www.w3.org/1999/xlink" width="500" zoomAndPan="magnify" viewBox="0 0 375 374.999991" height="500" preserveAspectRatio="xMidYMid meet" version="1.0"><defs><g/><clipPath id="7bcfd04ef9"><path d="M 0.679688 18 L 37 18 L 37 75 L 0.679688 75 Z M 0.679688 18 " clip-rule="nonzero"/></clipPath><clipPath id="55108ee546"><rect x="0" width="150" y="0" height="97"/></clipPath><clipPath id="0f8f7e13c3"><rect x="0" width="106" y="0" height="19"/></clipPath><clipPath id="af11914ccd"><path d="M 185.222656 131.515625 L 375 131.515625 L 375 224.109375 L 185.222656 224.109375 Z M 185.222656 131.515625 " clip-rule="nonzero"/></clipPath><clipPath id="5bd2f2f2ab"><path d="M 200.816406 131.515625 L 375 131.515625 L 359.410156 224.109375 L 185.222656 224.109375 Z M 200.816406 131.515625 " clip-rule="nonzero"/></clipPath><clipPath id="7f786cfe86"><path d="M 0.222656 0.515625 L 190 0.515625 L 190 93.109375 L 0.222656 93.109375 Z M 0.222656 0.515625 " clip-rule="nonzero"/></clipPath><clipPath id="c7b672860b"><path d="M 15.816406 0.515625 L 190 0.515625 L 174.410156 93.109375 L 0.222656 93.109375 Z M 15.816406 0.515625 " clip-rule="nonzero"/></clipPath><clipPath id="f5491d4e3f"><rect x="0" width="190" y="0" height="94"/></clipPath><clipPath id="a000d37c8b"><rect x="0" width="173" y="0" height="78"/></clipPath></defs><g transform="matrix(1, 0, 0, 1, 43, 114)"><g clip-path="url(#55108ee546)"><g clip-path="url(#7bcfd04ef9)"><g fill="#000000" fill-opacity="1"><g transform="translate(4.800819, 74.677376)"><g><path d="M -3.90625 0 L 8.96875 -55.8125 L 31.3125 -55.8125 L 28.84375 -45.015625 L 17.859375 -45.015625 L 15.328125 -34.171875 L 25.859375 -34.171875 L 23.453125 -23.65625 L 12.921875 -23.65625 L 9.9375 -10.84375 L 21.625 -10.84375 L 19.15625 0 Z M -3.90625 0 "/></g></g></g></g><g fill="#000000" fill-opacity="1"><g transform="translate(33.192127, 74.677376)"><g><path d="M -3.90625 0 L 8.96875 -55.8125 L 20.140625 -55.8125 L 9.484375 -9.484375 L 20.984375 -9.484375 L 18.78125 0 Z M -3.90625 0 "/></g></g></g><g fill="#000000" fill-opacity="1"><g transform="translate(60.608912, 74.677376)"><g><path d="M -3.90625 0 L 8.96875 -55.8125 L 31.3125 -55.8125 L 28.84375 -45.015625 L 17.859375 -45.015625 L 15.328125 -34.171875 L 25.859375 -34.171875 L 23.453125 -23.65625 L 12.921875 -23.65625 L 9.9375 -10.84375 L 21.625 -10.84375 L 19.15625 0 Z M -3.90625 0 "/></g></g></g><g fill="#000000" fill-opacity="1"><g transform="translate(89.00022, 74.677376)"><g><path d="M 0.84375 0 L 11.234375 -45.09375 L 4.609375 -45.09375 L 7.078125 -55.8125 L 31.515625 -55.8125 L 29.046875 -45.09375 L 22.421875 -45.09375 L 12.015625 0 Z M 0.84375 0 "/></g></g></g><g fill="#000000" fill-opacity="1"><g transform="translate(116.352042, 74.677376)"><g><path d="M -3.90625 0 L 8.96875 -55.8125 L 31.3125 -55.8125 L 28.84375 -45.015625 L 17.859375 -45.015625 L 15.328125 -34.171875 L 25.859375 -34.171875 L 23.453125 -23.65625 L 12.921875 -23.65625 L 9.9375 -10.84375 L 21.625 -10.84375 L 19.15625 0 Z M -3.90625 0 "/></g></g></g></g></g><g transform="matrix(1, 0, 0, 1, 63, 209)"><g clip-path="url(#0f8f7e13c3)"><g fill="#ffffff" fill-opacity="1"><g transform="translate(1.390305, 14.529337)"><g><path d="M 3.859375 0.140625 C 3.085938 0.140625 2.347656 0.03125 1.640625 -0.1875 C 0.929688 -0.40625 0.378906 -0.6875 -0.015625 -1.03125 L 0.765625 -2.484375 C 1.191406 -2.148438 1.691406 -1.882812 2.265625 -1.6875 C 2.835938 -1.5 3.425781 -1.40625 4.03125 -1.40625 C 4.757812 -1.40625 5.335938 -1.53125 5.765625 -1.78125 C 6.203125 -2.03125 6.421875 -2.375 6.421875 -2.8125 C 6.421875 -3.0625 6.332031 -3.269531 6.15625 -3.4375 C 5.976562 -3.601562 5.757812 -3.738281 5.5 -3.84375 C 5.238281 -3.945312 4.875 -4.066406 4.40625 -4.203125 C 3.757812 -4.390625 3.234375 -4.570312 2.828125 -4.75 C 2.429688 -4.925781 2.09375 -5.1875 1.8125 -5.53125 C 1.53125 -5.882812 1.390625 -6.34375 1.390625 -6.90625 C 1.390625 -7.5625 1.570312 -8.128906 1.9375 -8.609375 C 2.300781 -9.097656 2.8125 -9.472656 3.46875 -9.734375 C 4.125 -10.003906 4.878906 -10.140625 5.734375 -10.140625 C 6.390625 -10.140625 7.003906 -10.066406 7.578125 -9.921875 C 8.160156 -9.773438 8.660156 -9.566406 9.078125 -9.296875 L 8.359375 -7.828125 C 7.984375 -8.078125 7.5625 -8.265625 7.09375 -8.390625 C 6.625 -8.523438 6.140625 -8.59375 5.640625 -8.59375 C 4.898438 -8.59375 4.3125 -8.457031 3.875 -8.1875 C 3.445312 -7.914062 3.234375 -7.554688 3.234375 -7.109375 C 3.234375 -6.847656 3.320312 -6.632812 3.5 -6.46875 C 3.675781 -6.300781 3.894531 -6.164062 4.15625 -6.0625 C 4.414062 -5.957031 4.789062 -5.832031 5.28125 -5.6875 C 5.914062 -5.5 6.429688 -5.320312 6.828125 -5.15625 C 7.222656 -4.988281 7.5625 -4.738281 7.84375 -4.40625 C 8.125 -4.070312 8.265625 -3.632812 8.265625 -3.09375 C 8.265625 -2.4375 8.082031 -1.863281 7.71875 -1.375 C 7.351562 -0.894531 6.832031 -0.519531 6.15625 -0.25 C 5.488281 0.0078125 4.722656 0.140625 3.859375 0.140625 Z M 3.859375 0.140625 "/></g></g></g><g fill="#ffffff" fill-opacity="1"><g transform="translate(16.093753, 14.529337)"><g><path d="M 4.109375 -8.4375 L 3.59375 -5.84375 L 8.4375 -5.84375 L 8.140625 -4.3125 L 3.28125 -4.3125 L 2.734375 -1.5625 L 8.390625 -1.5625 L 8.078125 0 L 0.578125 0 L 2.578125 -10 L 9.875 -10 L 9.5625 -8.4375 Z M 4.109375 -8.4375 "/></g></g></g><g fill="#ffffff" fill-opacity="1"><g transform="translate(31.382887, 14.529337)"><g><path d="M 10.265625 -6.984375 C 10.265625 -6.023438 10.003906 -5.210938 9.484375 -4.546875 C 8.972656 -3.890625 8.257812 -3.429688 7.34375 -3.171875 L 9.125 0 L 7.15625 0 L 5.515625 -2.921875 L 3.03125 -2.921875 L 2.453125 0 L 0.578125 0 L 2.578125 -10 L 6.46875 -10 C 7.675781 -10 8.609375 -9.734375 9.265625 -9.203125 C 9.929688 -8.671875 10.265625 -7.929688 10.265625 -6.984375 Z M 5.5625 -4.453125 C 6.457031 -4.453125 7.148438 -4.65625 7.640625 -5.0625 C 8.140625 -5.46875 8.390625 -6.050781 8.390625 -6.8125 C 8.390625 -7.34375 8.207031 -7.742188 7.84375 -8.015625 C 7.476562 -8.285156 6.953125 -8.421875 6.265625 -8.421875 L 4.140625 -8.421875 L 3.34375 -4.453125 Z M 5.5625 -4.453125 "/></g></g></g><g fill="#ffffff" fill-opacity="1"><g transform="translate(47.54342, 14.529337)"><g><path d="M 11.703125 -10 L 5.359375 0 L 3.53125 0 L 1.171875 -10 L 3.078125 -10 L 4.875 -2.3125 L 9.78125 -10 Z M 11.703125 -10 "/></g></g></g><g fill="#ffffff" fill-opacity="1"><g transform="translate(63.675384, 14.529337)"><g><path d="M 2.578125 -10 L 4.4375 -10 L 2.4375 0 L 0.578125 0 Z M 2.578125 -10 "/></g></g></g><g fill="#ffffff" fill-opacity="1"><g transform="translate(73.950448, 14.529337)"><g><path d="M 5.65625 0.140625 C 4.65625 0.140625 3.789062 -0.0351562 3.0625 -0.390625 C 2.332031 -0.742188 1.769531 -1.242188 1.375 -1.890625 C 0.988281 -2.546875 0.796875 -3.289062 0.796875 -4.125 C 0.796875 -5.25 1.050781 -6.265625 1.5625 -7.171875 C 2.082031 -8.085938 2.804688 -8.8125 3.734375 -9.34375 C 4.671875 -9.875 5.742188 -10.140625 6.953125 -10.140625 C 7.816406 -10.140625 8.578125 -9.992188 9.234375 -9.703125 C 9.898438 -9.421875 10.40625 -9.007812 10.75 -8.46875 L 9.40625 -7.34375 C 8.84375 -8.125 7.984375 -8.515625 6.828125 -8.515625 C 5.992188 -8.515625 5.265625 -8.320312 4.640625 -7.9375 C 4.015625 -7.5625 3.53125 -7.046875 3.1875 -6.390625 C 2.84375 -5.734375 2.671875 -5.015625 2.671875 -4.234375 C 2.671875 -3.390625 2.941406 -2.71875 3.484375 -2.21875 C 4.023438 -1.726562 4.796875 -1.484375 5.796875 -1.484375 C 6.953125 -1.484375 7.898438 -1.867188 8.640625 -2.640625 L 9.71875 -1.46875 C 9.25 -0.925781 8.664062 -0.519531 7.96875 -0.25 C 7.269531 0.0078125 6.5 0.140625 5.65625 0.140625 Z M 5.65625 0.140625 "/></g></g></g><g fill="#ffffff" fill-opacity="1"><g transform="translate(90.053842, 14.529337)"><g><path d="M 4.109375 -8.4375 L 3.59375 -5.84375 L 8.4375 -5.84375 L 8.140625 -4.3125 L 3.28125 -4.3125 L 2.734375 -1.5625 L 8.390625 -1.5625 L 8.078125 0 L 0.578125 0 L 2.578125 -10 L 9.875 -10 L 9.5625 -8.4375 Z M 4.109375 -8.4375 "/></g></g></g></g></g><path stroke-linecap="butt" transform="matrix(0.75, 0, 0, 0.75, 0.0000045, 201.298052)" fill="none" stroke-linejoin="miter" d="M -0.000006 0.49843 L 233.937509 0.49843 " stroke="#000000" stroke-width="1" stroke-opacity="1" stroke-miterlimit="4"/><g clip-path="url(#af11914ccd)"><g clip-path="url(#5bd2f2f2ab)"><g transform="matrix(1, 0, 0, 1, 185, 131)"><g clip-path="url(#f5491d4e3f)"><g clip-path="url(#7f786cfe86)"><g clip-path="url(#c7b672860b)"><path fill="#ff1616" d="M 0.222656 0.515625 L 190.113281 0.515625 L 190.113281 93.109375 L 0.222656 93.109375 Z M 0.222656 0.515625 " fill-opacity="1" fill-rule="nonzero"/></g></g></g></g></g></g><g transform="matrix(1, 0, 0, 1, 197, 140)"><g clip-path="url(#a000d37c8b)"><g fill="#ffffff" fill-opacity="1"><g transform="translate(4.445295, 59.942277)"><g><path d="M -3.125 0 L 7.171875 -44.65625 L 20.78125 -44.65625 L 18.234375 -17.421875 L 28.28125 -44.65625 L 42 -44.65625 L 31.703125 0 L 23.546875 0 L 30.984375 -32.171875 L 18.390625 0 L 10.390625 0 L 12.359375 -32.171875 L 4.9375 0 Z M -3.125 0 "/></g></g></g><g fill="#ffffff" fill-opacity="1"><g transform="translate(44.260064, 59.942277)"><g><path d="M 7.421875 0.421875 C 3.816406 0.421875 1.332031 -0.675781 -0.03125 -2.875 C -1.394531 -5.082031 -1.613281 -8.179688 -0.6875 -12.171875 L 4.203125 -33.421875 C 5.109375 -37.273438 6.71875 -40.179688 9.03125 -42.140625 C 11.351562 -44.097656 14.316406 -45.078125 17.921875 -45.078125 C 21.523438 -45.078125 24.035156 -44.097656 25.453125 -42.140625 C 26.878906 -40.179688 27.144531 -37.273438 26.25 -33.421875 L 21.359375 -12.171875 C 20.421875 -8.148438 18.765625 -5.046875 16.390625 -2.859375 C 14.015625 -0.671875 11.023438 0.421875 7.421875 0.421875 Z M 9.296875 -7.796875 C 10.097656 -7.796875 10.722656 -8.140625 11.171875 -8.828125 C 11.617188 -9.523438 11.984375 -10.5 12.265625 -11.75 L 17.3125 -33.578125 C 17.519531 -34.546875 17.570312 -35.332031 17.46875 -35.9375 C 17.363281 -36.550781 16.910156 -36.859375 16.109375 -36.859375 C 14.617188 -36.859375 13.613281 -35.734375 13.09375 -33.484375 L 8.046875 -11.703125 C 7.734375 -10.410156 7.65625 -9.4375 7.8125 -8.78125 C 7.96875 -8.125 8.460938 -7.796875 9.296875 -7.796875 Z M 9.296875 -7.796875 "/></g></g></g><g fill="#ffffff" fill-opacity="1"><g transform="translate(70.56071, 59.942277)"><g><path d="M 0.671875 0 L 9 -36.078125 L 3.6875 -36.078125 L 5.671875 -44.65625 L 25.21875 -44.65625 L 23.234375 -36.078125 L 17.9375 -36.078125 L 9.609375 0 Z M 0.671875 0 "/></g></g></g><g fill="#ffffff" fill-opacity="1"><g transform="translate(92.183401, 59.942277)"><g><path d="M 7.421875 0.421875 C 3.816406 0.421875 1.332031 -0.675781 -0.03125 -2.875 C -1.394531 -5.082031 -1.613281 -8.179688 -0.6875 -12.171875 L 4.203125 -33.421875 C 5.109375 -37.273438 6.71875 -40.179688 9.03125 -42.140625 C 11.351562 -44.097656 14.316406 -45.078125 17.921875 -45.078125 C 21.523438 -45.078125 24.035156 -44.097656 25.453125 -42.140625 C 26.878906 -40.179688 27.144531 -37.273438 26.25 -33.421875 L 21.359375 -12.171875 C 20.421875 -8.148438 18.765625 -5.046875 16.390625 -2.859375 C 14.015625 -0.671875 11.023438 0.421875 7.421875 0.421875 Z M 9.296875 -7.796875 C 10.097656 -7.796875 10.722656 -8.140625 11.171875 -8.828125 C 11.617188 -9.523438 11.984375 -10.5 12.265625 -11.75 L 17.3125 -33.578125 C 17.519531 -34.546875 17.570312 -35.332031 17.46875 -35.9375 C 17.363281 -36.550781 16.910156 -36.859375 16.109375 -36.859375 C 14.617188 -36.859375 13.613281 -35.734375 13.09375 -33.484375 L 8.046875 -11.703125 C 7.734375 -10.410156 7.65625 -9.4375 7.8125 -8.78125 C 7.96875 -8.125 8.460938 -7.796875 9.296875 -7.796875 Z M 9.296875 -7.796875 "/></g></g></g><g fill="#ffffff" fill-opacity="1"><g transform="translate(118.484047, 59.942277)"><g><path d="M 7.171875 -44.65625 L 20.890625 -44.65625 C 23.078125 -44.65625 24.65625 -44.160156 25.625 -43.171875 C 26.59375 -42.179688 27.078125 -40.796875 27.078125 -39.015625 C 27.078125 -37.234375 26.765625 -34.953125 26.140625 -32.171875 C 25.554688 -29.648438 24.769531 -27.675781 23.78125 -26.25 C 22.789062 -24.832031 21.410156 -23.84375 19.640625 -23.28125 C 20.921875 -23.007812 21.742188 -22.335938 22.109375 -21.265625 C 22.472656 -20.191406 22.445312 -18.734375 22.03125 -16.890625 L 18.03125 0 L 9.296875 0 L 13.296875 -17.46875 C 13.609375 -18.71875 13.554688 -19.515625 13.140625 -19.859375 C 12.722656 -20.203125 11.875 -20.375 10.59375 -20.375 L 5.921875 0 L -3.125 0 Z M 14.609375 -28.125 C 15.847656 -28.125 16.78125 -29.472656 17.40625 -32.171875 C 17.6875 -33.359375 17.832031 -34.242188 17.84375 -34.828125 C 17.863281 -35.421875 17.757812 -35.828125 17.53125 -36.046875 C 17.3125 -36.273438 16.941406 -36.390625 16.421875 -36.390625 L 14.34375 -36.390625 L 12.46875 -28.125 Z M 14.609375 -28.125 "/></g></g></g><g fill="#ffffff" fill-opacity="1"><g transform="translate(144.3169, 59.942277)"><g><path d="M 7.375 0.421875 C 3.320312 0.421875 0.628906 -0.582031 -0.703125 -2.59375 C -2.035156 -4.601562 -2.1875 -7.84375 -1.15625 -12.3125 L -0.15625 -16.6875 L 8.625 -16.6875 L 7.328125 -11.125 C 6.804688 -8.90625 7.253906 -7.796875 8.671875 -7.796875 C 9.472656 -7.796875 10.085938 -8.03125 10.515625 -8.5 C 10.953125 -8.96875 11.289062 -9.753906 11.53125 -10.859375 C 11.882812 -12.316406 11.988281 -13.519531 11.84375 -14.46875 C 11.707031 -15.425781 11.445312 -16.222656 11.0625 -16.859375 C 10.6875 -17.503906 9.960938 -18.503906 8.890625 -19.859375 L 5.921875 -23.703125 C 3.628906 -26.617188 2.882812 -29.84375 3.6875 -33.375 C 4.550781 -37.1875 6.09375 -40.085938 8.3125 -42.078125 C 10.53125 -44.078125 13.320312 -45.078125 16.6875 -45.078125 C 20.707031 -45.078125 23.359375 -44.007812 24.640625 -41.875 C 25.921875 -39.738281 26.023438 -36.398438 24.953125 -31.859375 L 15.84375 -31.859375 L 16.53125 -34.9375 C 16.664062 -35.519531 16.609375 -35.984375 16.359375 -36.328125 C 16.117188 -36.679688 15.707031 -36.859375 15.125 -36.859375 C 14.425781 -36.859375 13.851562 -36.664062 13.40625 -36.28125 C 12.957031 -35.90625 12.660156 -35.382812 12.515625 -34.71875 C 12.171875 -33.269531 12.660156 -31.765625 13.984375 -30.203125 L 18.03125 -25.21875 C 18.96875 -24.03125 19.710938 -22.910156 20.265625 -21.859375 C 20.816406 -20.804688 21.171875 -19.554688 21.328125 -18.109375 C 21.484375 -16.671875 21.335938 -14.96875 20.890625 -13 C 19.847656 -8.59375 18.257812 -5.253906 16.125 -2.984375 C 14 -0.710938 11.082031 0.421875 7.375 0.421875 Z M 7.375 0.421875 "/></g></g></g></g></g></svg>